<svg width="112" height="40" viewBox="0 0 112 40" fill="none" xmlns="http://www.w3.org/2000/svg">
<path d="M1.464 28.5V11.34H8.136C12.864 11.34 15.768 14.412 15.768 19.932C15.768 25.452 12.96 28.5 8.208 28.5H1.464ZM4.32 13.764V26.076H7.992C11.832 26.076 12.912 23.22 12.912 19.932C12.912 16.644 11.832 13.764 7.992 13.764H4.32ZM23.7178 26.796C25.8058 26.796 26.6458 25.5 26.8618 24.756H29.3818C28.7578 27.084 26.9338 28.86 23.7898 28.86C19.9738 28.86 17.6458 26.22 17.6458 22.38C17.6458 18.396 19.9738 15.9 23.6698 15.9C27.6298 15.9 29.5738 18.66 29.5738 23.028H20.1658C20.1658 25.092 21.4858 26.796 23.7178 26.796ZM23.6698 17.892C21.6298 17.892 20.1658 19.26 20.1658 21.156H27.0538C27.0538 19.26 25.7098 17.892 23.6698 17.892ZM39.2176 19.452C39.2176 18.564 38.6896 17.892 37.0096 17.892C34.9936 17.892 34.2496 18.516 34.1296 20.1H31.6816C31.8016 17.748 33.3136 15.9 37.0096 15.9C39.7216 15.9 41.7376 16.932 41.7376 20.196V26.028C41.7376 26.892 41.9296 27.348 42.9136 27.252V28.452C42.3376 28.668 41.9296 28.716 41.4496 28.716C40.1056 28.716 39.4816 28.236 39.2416 27.036H39.1936C38.4256 28.116 37.0336 28.86 35.1376 28.86C32.6416 28.86 31.1056 27.42 31.1056 25.356C31.1056 22.668 33.0976 21.828 36.1696 21.228C38.0656 20.868 39.2176 20.628 39.2176 19.452ZM35.6896 26.868C37.7776 26.868 39.2176 25.836 39.2176 23.844V21.996C38.8096 22.284 37.8256 22.572 36.6496 22.812C34.5616 23.268 33.6496 23.868 33.6496 25.116C33.6496 26.244 34.3216 26.868 35.6896 26.868ZM44.9355 11.34H47.4795V28.5H44.9355V11.34Z" fill="#E8AF17"/>
<path d="M56.1393 28.5V11.34H62.9553C66.0993 11.34 68.5233 12.732 68.5233 16.332C68.5233 19.932 66.0993 21.324 62.9553 21.324H58.2993V28.5H56.1393ZM58.2993 13.26V19.404H63.1953C65.3313 19.404 66.3633 18.42 66.3633 16.332C66.3633 14.244 65.3313 13.26 63.1953 13.26H58.2993ZM77.8314 19.38C77.8314 18.42 77.3034 17.604 75.3354 17.604C73.0074 17.604 72.2394 18.276 72.1194 20.052H70.1994C70.3194 17.7 71.7834 15.924 75.3354 15.924C77.6634 15.924 79.7514 16.836 79.7514 19.788V25.74C79.7514 26.7 79.9194 27.228 81.1434 27.084V28.428C80.6394 28.596 80.3754 28.62 80.0154 28.62C78.8634 28.62 78.1674 28.308 77.8314 26.964H77.7834C77.0154 28.116 75.6474 28.836 73.6314 28.836C71.1594 28.836 69.5994 27.42 69.5994 25.356C69.5994 22.572 71.6634 21.852 74.8314 21.252C76.8954 20.868 77.8314 20.604 77.8314 19.38ZM73.8234 27.156C76.1034 27.156 77.8314 26.124 77.8314 23.772V21.732C77.4714 22.092 76.2954 22.428 74.9994 22.692C72.6234 23.196 71.5194 23.796 71.5194 25.26C71.5194 26.46 72.2394 27.156 73.8234 27.156ZM83.0778 11.34H84.9978V21.516L90.6138 16.26H93.0138L88.2378 20.796L93.5178 28.5H91.2378L86.8938 21.924L84.9978 23.676V28.5H83.0778V11.34ZM95.32 11.34H97.24V21.516L102.856 16.26H105.256L100.48 20.796L105.76 28.5H103.48L99.136 21.924L97.24 23.676V28.5H95.32V11.34ZM108.762 13.884C108.234 13.884 107.562 13.476 107.562 12.732C107.562 11.988 108.234 11.58 108.762 11.58C109.314 11.58 109.962 11.988 109.962 12.732C109.962 13.476 109.314 13.884 108.762 13.884ZM107.802 16.26H109.722V28.5H107.802V16.26Z" fill="#474133"/>
</svg>
