<svg width="72" height="32" viewBox="0 0 72 32" fill="none" xmlns="http://www.w3.org/2000/svg">
<path d="M1.072 22.5V11.06H5.216C8.368 11.06 10.304 13.108 10.304 16.788C10.304 20.468 8.368 22.5 5.216 22.5H1.072ZM2.512 12.34V21.22H5.216C8.128 21.22 8.864 19.028 8.864 16.788C8.864 14.548 8.128 12.34 5.216 12.34H2.512ZM15.4395 21.604C17.0715 21.604 17.6795 20.548 17.8235 19.988H19.1035C18.6875 21.508 17.5195 22.724 15.4875 22.724C13.0075 22.724 11.5035 20.98 11.5035 18.42C11.5035 15.7 13.0395 14.116 15.4235 14.116C17.9835 14.116 19.2315 15.86 19.2315 18.756H12.7835C12.7835 20.228 13.6635 21.604 15.4395 21.604ZM15.4235 15.236C13.8875 15.236 12.7835 16.324 12.7835 17.636H17.9515C17.9515 16.324 16.9595 15.236 15.4235 15.236ZM25.6407 16.42C25.6407 15.78 25.2887 15.236 23.9767 15.236C22.4247 15.236 21.9127 15.684 21.8327 16.868H20.5527C20.6327 15.3 21.6087 14.116 23.9767 14.116C25.5287 14.116 26.9207 14.724 26.9207 16.692V20.66C26.9207 21.3 27.0327 21.652 27.8487 21.556V22.452C27.5127 22.564 27.3367 22.58 27.0967 22.58C26.3287 22.58 25.8647 22.372 25.6407 21.476H25.6087C25.0967 22.244 24.1847 22.724 22.8407 22.724C21.1927 22.724 20.1527 21.78 20.1527 20.404C20.1527 18.548 21.5287 18.068 23.6407 17.668C25.0167 17.412 25.6407 17.236 25.6407 16.42ZM22.9687 21.604C24.4887 21.604 25.6407 20.916 25.6407 19.348V17.988C25.4007 18.228 24.6167 18.452 23.7527 18.628C22.1687 18.964 21.4327 19.364 21.4327 20.34C21.4327 21.14 21.9127 21.604 22.9687 21.604ZM29.003 11.06H30.283V22.5H29.003V11.06Z" fill="#E8AF17"/>
<path d="M35.7908 22.5V11.06H40.3348C42.4308 11.06 44.0468 11.988 44.0468 14.388C44.0468 16.788 42.4308 17.716 40.3348 17.716H37.2308V22.5H35.7908ZM37.2308 12.34V16.436H40.4948C41.9188 16.436 42.6068 15.78 42.6068 14.388C42.6068 12.996 41.9188 12.34 40.4948 12.34H37.2308ZM50.0689 16.42C50.0689 15.78 49.7169 15.236 48.4049 15.236C46.8529 15.236 46.3409 15.684 46.2609 16.868H44.9809C45.0609 15.3 46.0369 14.116 48.4049 14.116C49.9569 14.116 51.3489 14.724 51.3489 16.692V20.66C51.3489 21.3 51.4609 21.652 52.2769 21.556V22.452C51.9409 22.564 51.7649 22.58 51.5249 22.58C50.7569 22.58 50.2929 22.372 50.0689 21.476H50.0369C49.5249 22.244 48.6129 22.724 47.2689 22.724C45.6209 22.724 44.5809 21.78 44.5809 20.404C44.5809 18.548 45.9569 18.068 48.0689 17.668C49.4449 17.412 50.0689 17.236 50.0689 16.42ZM47.3969 21.604C48.9169 21.604 50.0689 20.916 50.0689 19.348V17.988C49.8289 18.228 49.0449 18.452 48.1809 18.628C46.5969 18.964 45.8609 19.364 45.8609 20.34C45.8609 21.14 46.3409 21.604 47.3969 21.604ZM53.3831 11.06H54.6631V17.844L58.4071 14.34H60.0071L56.8231 17.364L60.3431 22.5H58.8231L55.9271 18.116L54.6631 19.284V22.5H53.3831V11.06ZM61.3613 11.06H62.6413V17.844L66.3853 14.34H67.9853L64.8013 17.364L68.3213 22.5H66.8013L63.9053 18.116L62.6413 19.284V22.5H61.3613V11.06ZM70.1394 12.756C69.7874 12.756 69.3394 12.484 69.3394 11.988C69.3394 11.492 69.7874 11.22 70.1394 11.22C70.5074 11.22 70.9394 11.492 70.9394 11.988C70.9394 12.484 70.5074 12.756 70.1394 12.756ZM69.4994 14.34H70.7794V22.5H69.4994V14.34Z" fill="#474133"/>
</svg>
