<svg width="121" height="19" viewBox="0 0 121 19" fill="none" xmlns="http://www.w3.org/2000/svg">
<path d="M6.56818 18.5H0.917614V1.04545H6.74716C8.45739 1.04545 9.92614 1.39489 11.1534 2.09375C12.3807 2.78693 13.321 3.78409 13.9744 5.08523C14.6335 6.38068 14.9631 7.93466 14.9631 9.74716C14.9631 11.5653 14.6307 13.1278 13.9659 14.4347C13.3068 15.7415 12.3523 16.7472 11.1023 17.4517C9.85227 18.1506 8.34091 18.5 6.56818 18.5ZM3.55114 16.1989H6.4233C7.75284 16.1989 8.85795 15.9489 9.73864 15.4489C10.6193 14.9432 11.2784 14.2131 11.7159 13.2585C12.1534 12.2983 12.3722 11.1278 12.3722 9.74716C12.3722 8.37784 12.1534 7.21591 11.7159 6.26136C11.2841 5.30682 10.6392 4.58239 9.78125 4.08807C8.9233 3.59375 7.85795 3.34659 6.58523 3.34659H3.55114V16.1989ZM24.1754 18.7642C22.8857 18.7642 21.7749 18.4886 20.843 17.9375C19.9169 17.3807 19.201 16.5994 18.6953 15.5938C18.1953 14.5824 17.9453 13.3977 17.9453 12.0398C17.9453 10.6989 18.1953 9.51705 18.6953 8.49432C19.201 7.47159 19.9055 6.6733 20.8089 6.09943C21.718 5.52557 22.7805 5.23864 23.9964 5.23864C24.7351 5.23864 25.451 5.3608 26.1442 5.60511C26.8374 5.84943 27.4595 6.23295 28.0107 6.75568C28.5618 7.27841 28.9964 7.95739 29.3146 8.79261C29.6328 9.62216 29.7919 10.6307 29.7919 11.8182V12.7216H19.3857V10.8125H27.2947C27.2947 10.142 27.1584 9.5483 26.8857 9.03125C26.6129 8.50852 26.2294 8.09659 25.7351 7.79545C25.2464 7.49432 24.6726 7.34375 24.0135 7.34375C23.2976 7.34375 22.6726 7.51989 22.1385 7.87216C21.6101 8.21875 21.201 8.6733 20.9112 9.2358C20.6271 9.79261 20.4851 10.3977 20.4851 11.0511V12.5426C20.4851 13.4176 20.6385 14.1619 20.9453 14.7756C21.2578 15.3892 21.6925 15.858 22.2493 16.1818C22.8061 16.5 23.4567 16.6591 24.201 16.6591C24.6839 16.6591 25.1243 16.5909 25.522 16.4545C25.9197 16.3125 26.2635 16.1023 26.5533 15.8239C26.843 15.5455 27.0646 15.2017 27.218 14.7926L29.63 15.2273C29.4368 15.9375 29.0902 16.5597 28.5902 17.0938C28.0959 17.6222 27.4737 18.0341 26.7237 18.3295C25.9794 18.6193 25.13 18.7642 24.1754 18.7642ZM36.929 18.7898C36.0994 18.7898 35.3494 18.6364 34.679 18.3295C34.0085 18.017 33.4773 17.5653 33.0852 16.9744C32.6989 16.3835 32.5057 15.6591 32.5057 14.8011C32.5057 14.0625 32.6477 13.4545 32.9318 12.9773C33.2159 12.5 33.5994 12.1222 34.0824 11.8438C34.5653 11.5653 35.1051 11.3551 35.7017 11.2131C36.2983 11.071 36.9063 10.9631 37.5256 10.8892C38.3097 10.7983 38.946 10.7244 39.4347 10.6676C39.9233 10.6051 40.2784 10.5057 40.5 10.3693C40.7216 10.233 40.8324 10.0114 40.8324 9.70455V9.64489C40.8324 8.90057 40.6222 8.32386 40.2017 7.91477C39.7869 7.50568 39.1676 7.30114 38.3438 7.30114C37.4858 7.30114 36.8097 7.49148 36.3153 7.87216C35.8267 8.24716 35.4886 8.66477 35.3011 9.125L32.9062 8.57955C33.1903 7.78409 33.6051 7.14205 34.1506 6.65341C34.7017 6.15909 35.3352 5.80114 36.0511 5.57954C36.767 5.35227 37.5199 5.23864 38.3097 5.23864C38.8324 5.23864 39.3864 5.30114 39.9716 5.42614C40.5625 5.54545 41.1136 5.76705 41.625 6.09091C42.142 6.41477 42.5653 6.87784 42.8949 7.48011C43.2244 8.0767 43.3892 8.85227 43.3892 9.80682V18.5H40.9006V16.7102H40.7983C40.6335 17.0398 40.3864 17.3636 40.0568 17.6818C39.7273 18 39.304 18.2642 38.7869 18.4744C38.2699 18.6847 37.6506 18.7898 36.929 18.7898ZM37.483 16.7443C38.1875 16.7443 38.7898 16.6051 39.2898 16.3267C39.7955 16.0483 40.179 15.6847 40.4403 15.2358C40.7074 14.7812 40.8409 14.2955 40.8409 13.7784V12.0909C40.75 12.1818 40.5739 12.267 40.3125 12.3466C40.0568 12.4205 39.7642 12.4858 39.4347 12.5426C39.1051 12.5937 38.7841 12.642 38.4716 12.6875C38.1591 12.7273 37.8977 12.7614 37.6875 12.7898C37.1932 12.8523 36.7415 12.9574 36.3324 13.1051C35.929 13.2528 35.6051 13.4659 35.3608 13.7443C35.1222 14.017 35.0028 14.3807 35.0028 14.8352C35.0028 15.4659 35.2358 15.9432 35.7017 16.267C36.1676 16.5852 36.7614 16.7443 37.483 16.7443ZM49.8317 1.04545V18.5H47.2834V1.04545H49.8317Z" fill="#E8AF17"/>
<path d="M61.4105 18.5V1.04545H67.3082C68.6776 1.04545 69.7969 1.29261 70.6662 1.78693C71.5412 2.27557 72.1889 2.9375 72.6094 3.77273C73.0298 4.60795 73.2401 5.53977 73.2401 6.56818C73.2401 7.59659 73.0298 8.53125 72.6094 9.37216C72.1946 10.2131 71.5526 10.8835 70.6832 11.3835C69.8139 11.8778 68.7003 12.125 67.3423 12.125H63.1151V10.25H67.2741C68.2116 10.25 68.9645 10.0881 69.5327 9.7642C70.1009 9.44034 70.5128 9.00284 70.7685 8.4517C71.0298 7.89489 71.1605 7.26705 71.1605 6.56818C71.1605 5.86932 71.0298 5.24432 70.7685 4.69318C70.5128 4.14205 70.098 3.71023 69.5241 3.39773C68.9503 3.07955 68.1889 2.92045 67.2401 2.92045H63.5241V18.5H61.4105ZM80.7244 18.8068C79.8949 18.8068 79.142 18.6506 78.4659 18.3381C77.7898 18.0199 77.2528 17.5625 76.8551 16.9659C76.4574 16.3636 76.2585 15.6364 76.2585 14.7841C76.2585 14.0341 76.4063 13.4261 76.7017 12.9602C76.9972 12.4886 77.392 12.1193 77.8864 11.8523C78.3807 11.5852 78.9261 11.3864 79.5227 11.2557C80.125 11.1193 80.7301 11.0114 81.3381 10.9318C82.1335 10.8295 82.7784 10.7528 83.2727 10.7017C83.7727 10.6449 84.1364 10.5511 84.3636 10.4205C84.5966 10.2898 84.7131 10.0625 84.7131 9.73864V9.67045C84.7131 8.82955 84.483 8.17614 84.0227 7.71023C83.5682 7.24432 82.8778 7.01136 81.9517 7.01136C80.9915 7.01136 80.2386 7.22159 79.6932 7.64205C79.1477 8.0625 78.7642 8.51136 78.5426 8.98864L76.6335 8.30682C76.9744 7.51136 77.429 6.89205 77.9972 6.44886C78.571 6 79.196 5.6875 79.8722 5.51136C80.554 5.32955 81.2244 5.23864 81.8835 5.23864C82.304 5.23864 82.7869 5.28977 83.3324 5.39204C83.8835 5.48864 84.4148 5.69034 84.9261 5.99716C85.4432 6.30398 85.8722 6.76705 86.2131 7.38636C86.554 8.00568 86.7244 8.83523 86.7244 9.875V18.5H84.7131V16.7273H84.6108C84.4744 17.0114 84.2472 17.3153 83.929 17.6392C83.6108 17.9631 83.1875 18.2386 82.6591 18.4659C82.1307 18.6932 81.4858 18.8068 80.7244 18.8068ZM81.0312 17C81.8267 17 82.4972 16.8438 83.0426 16.5312C83.5938 16.2188 84.0085 15.8153 84.2869 15.321C84.571 14.8267 84.7131 14.3068 84.7131 13.7614V11.9205C84.6278 12.0227 84.4403 12.1165 84.1506 12.2017C83.8665 12.2812 83.5369 12.3523 83.1619 12.4148C82.7926 12.4716 82.4318 12.5227 82.0795 12.5682C81.733 12.608 81.4517 12.642 81.2358 12.6705C80.7131 12.7386 80.2244 12.8494 79.7699 13.0028C79.321 13.1506 78.9574 13.375 78.679 13.6761C78.4063 13.9716 78.2699 14.375 78.2699 14.8864C78.2699 15.5852 78.5284 16.1136 79.0455 16.4716C79.5682 16.8239 80.2301 17 81.0312 17ZM92.7706 13.7273L92.7365 11.2386H93.1456L98.8729 5.40909H101.362L95.2592 11.5795H95.0888L92.7706 13.7273ZM90.8956 18.5V1.04545H92.907V18.5H90.8956ZM99.2138 18.5L94.1001 12.0227L95.532 10.625L101.771 18.5H99.2138ZM106.325 13.7273L106.291 11.2386H106.7L112.428 5.40909H114.916L108.814 11.5795H108.643L106.325 13.7273ZM104.45 18.5V1.04545H106.462V18.5H104.45ZM112.768 18.5L107.655 12.0227L109.087 10.625L115.325 18.5H112.768ZM118.005 18.5V5.40909H120.016V18.5H118.005ZM119.028 3.22727C118.636 3.22727 118.298 3.09375 118.013 2.8267C117.735 2.55966 117.596 2.23864 117.596 1.86364C117.596 1.48864 117.735 1.16761 118.013 0.900568C118.298 0.633523 118.636 0.5 119.028 0.5C119.42 0.5 119.755 0.633523 120.033 0.900568C120.317 1.16761 120.46 1.48864 120.46 1.86364C120.46 2.23864 120.317 2.55966 120.033 2.8267C119.755 3.09375 119.42 3.22727 119.028 3.22727Z" fill="#474133"/>
</svg>
