<svg width="17" height="19" viewBox="0 0 17 19" fill="none" xmlns="http://www.w3.org/2000/svg">
<path d="M9.94167 16.8333C9.79516 17.0859 9.58487 17.2955 9.33185 17.4413C9.07884 17.587 8.79198 17.6637 8.5 17.6637C8.20802 17.6637 7.92116 17.587 7.66814 17.4413C7.41513 17.2955 7.20484 17.0859 7.05833 16.8333M13.5 6C13.5 4.67392 12.9732 3.40215 12.0355 2.46447C11.0979 1.52678 9.82608 1 8.5 1C7.17392 1 5.90215 1.52678 4.96447 2.46447C4.02678 3.40215 3.5 4.67392 3.5 6C3.5 11.8333 1 13.5 1 13.5H16C16 13.5 13.5 11.8333 13.5 6Z" stroke="#6B510B" stroke-width="1.5" stroke-linecap="round" stroke-linejoin="round"/>
</svg>
